<?xml version="1.0" encoding="UTF-8" standalone="no"?>
<!-- Created with Inkscape (http://www.inkscape.org/) -->

<svg
   width="45.355087mm"
   height="67.945015mm"
   viewBox="0 0 45.355087 67.945015"
   version="1.1"
   id="svg963"
   xml:space="preserve"
   inkscape:version="1.2.1 (9c6d41e410, 2022-07-14)"
   sodipodi:docname="kiki.svg"
   xmlns:inkscape="http://www.inkscape.org/namespaces/inkscape"
   xmlns:sodipodi="http://sodipodi.sourceforge.net/DTD/sodipodi-0.dtd"
   xmlns="http://www.w3.org/2000/svg"
   xmlns:svg="http://www.w3.org/2000/svg"><sodipodi:namedview
     id="namedview965"
     pagecolor="#ffffff"
     bordercolor="#666666"
     borderopacity="1.0"
     inkscape:showpageshadow="2"
     inkscape:pageopacity="0.0"
     inkscape:pagecheckerboard="0"
     inkscape:deskcolor="#d1d1d1"
     inkscape:document-units="mm"
     showgrid="false"
     inkscape:zoom="1.1893044"
     inkscape:cx="260.65657"
     inkscape:cy="52.972141"
     inkscape:window-width="1920"
     inkscape:window-height="979"
     inkscape:window-x="0"
     inkscape:window-y="32"
     inkscape:window-maximized="1"
     inkscape:current-layer="layer1" /><defs
     id="defs960" /><g
     inkscape:label="Layer 1"
     inkscape:groupmode="layer"
     id="layer1"
     transform="translate(-19.350479,-79.267091)"><path
       style="fill:#000000;stroke-width:1.05833"
       d="m 24.270117,145.44147 c -0.34112,-0.88896 0.83377,-7.41981 2.61088,-14.51301 l 3.23109,-12.89673 -4.11028,-3.79459 c -17.6592984,-16.302971 2.97409,-42.884311 25.39427,-32.714621 11.0669,5.0199 17.65614,20.318871 10.0043,23.228091 -6.13657,2.33312 -19.69332,0.60627 -20.95001,-2.6686 -0.92955,-2.422361 1.87032,-3.893871 5.08407,-2.672011 14.00415,5.324371 18.01382,-6.03519 4.44829,-12.60216 -18.56292,-8.98615 -34.18237,11.29405 -18.73222,24.321801 l 5.15106,4.34344 -3.4683,13.1465 -3.4683,13.1465 h 12.0334 c 6.61838,0 12.0306,-0.11906 12.02718,-0.26458 -0.003,-0.14552 -1.42937,-5.50333 -3.16877,-11.90625 -4.55117,-16.75334 -4.52969,-16.88239 3.01136,-18.08825 5.17063,-0.82682 6.51626,2.49538 1.86847,4.61305 l -2.52849,1.15206 3.58894,13.56991 c 1.97392,7.46344 3.36481,14.16521 3.09088,14.89281 -0.80905,2.14894 -34.28794,1.86926 -35.11782,-0.29336 z"
       id="path1027" /></g></svg>
