<?xml version="1.0" encoding="UTF-8" standalone="no"?>
<!-- Created with Inkscape (http://www.inkscape.org/) -->

<svg
   width="297mm"
   height="420mm"
   viewBox="0 0 297 420"
   version="1.1"
   id="svg621"
   inkscape:version="1.3.2 (091e20ef0f, 2023-11-25)"
   sodipodi:docname="rueckseite_mitte.svg"
   xml:space="preserve"
   xmlns:inkscape="http://www.inkscape.org/namespaces/inkscape"
   xmlns:sodipodi="http://sodipodi.sourceforge.net/DTD/sodipodi-0.dtd"
   xmlns:xlink="http://www.w3.org/1999/xlink"
   xmlns="http://www.w3.org/2000/svg"
   xmlns:svg="http://www.w3.org/2000/svg"><sodipodi:namedview
     id="namedview623"
     pagecolor="#ffffff"
     bordercolor="#666666"
     borderopacity="1.0"
     inkscape:showpageshadow="2"
     inkscape:pageopacity="0.0"
     inkscape:pagecheckerboard="0"
     inkscape:deskcolor="#d1d1d1"
     inkscape:document-units="mm"
     showgrid="false"
     inkscape:zoom="0.5"
     inkscape:cx="702"
     inkscape:cy="745"
     inkscape:window-width="1920"
     inkscape:window-height="1131"
     inkscape:window-x="0"
     inkscape:window-y="0"
     inkscape:window-maximized="1"
     inkscape:current-layer="layer1"
     showguides="true"><sodipodi:guide
       position="294,328.27033"
       orientation="-1,0"
       id="guide8988"
       inkscape:locked="false"
       inkscape:label=""
       inkscape:color="rgb(0,134,229)" /><sodipodi:guide
       position="78.046231,417"
       orientation="0,1"
       id="guide8990"
       inkscape:locked="false"
       inkscape:label=""
       inkscape:color="rgb(0,134,229)" /><sodipodi:guide
       position="3,411.95967"
       orientation="-1,0"
       id="guide8992"
       inkscape:locked="false"
       inkscape:label=""
       inkscape:color="rgb(0,134,229)" /><sodipodi:guide
       position="-7.897807,3"
       orientation="0,1"
       id="guide8994"
       inkscape:locked="false"
       inkscape:label=""
       inkscape:color="rgb(0,134,229)" /><sodipodi:guide
       position="149.92865,306.44457"
       orientation="1,0"
       id="guide2396"
       inkscape:locked="false" /></sodipodi:namedview><defs
     id="defs618"><rect
       x="-214.15295"
       y="1617.3278"
       width="433.31499"
       height="218.13304"
       id="rect2" /><clipPath
       clipPathUnits="userSpaceOnUse"
       id="clipPath1"><g
         id="g2"><circle
           style="fill:#ffffff;fill-opacity:1;stroke:#0c0b0b;stroke-width:1.53818;stroke-linecap:round;stroke-linejoin:round;stroke-dasharray:none;stroke-opacity:1;paint-order:stroke markers fill"
           id="circle1"
           cx="149.95119"
           cy="209.89543"
           r="139.37683" /></g></clipPath><clipPath
       clipPathUnits="userSpaceOnUse"
       id="clipPath2"><g
         id="g3"><circle
           style="fill:#ffffff;fill-opacity:1;stroke:#0c0b0b;stroke-width:1.53818;stroke-linecap:round;stroke-linejoin:round;stroke-dasharray:none;stroke-opacity:1;paint-order:stroke markers fill"
           id="circle2"
           cx="149.95119"
           cy="209.89543"
           r="139.37683" /></g></clipPath><clipPath
       clipPathUnits="userSpaceOnUse"
       id="clipPath3"><g
         id="g4"><circle
           style="fill:#ffffff;fill-opacity:1;stroke:#0c0b0b;stroke-width:1.53818;stroke-linecap:round;stroke-linejoin:round;stroke-dasharray:none;stroke-opacity:1;paint-order:stroke markers fill"
           id="circle3"
           cx="149.95119"
           cy="209.89543"
           r="139.37683" /></g></clipPath></defs><g
     inkscape:groupmode="layer"
     id="layer3"
     inkscape:label="Circles"
     style="display:inline"><circle
       style="display:inline;mix-blend-mode:normal;fill:#ffffff;fill-opacity:1;stroke:#0c0b0b;stroke-width:1.52306;stroke-linecap:round;stroke-linejoin:round;stroke-dasharray:none;stroke-opacity:1;paint-order:stroke markers fill"
       id="circle19"
       cx="149.95119"
       cy="158.36978"
       r="138.0071" /><circle
       style="display:inline;mix-blend-mode:normal;fill:#ffffff;fill-opacity:1;stroke:#0c0b0b;stroke-width:1.24547;stroke-linecap:round;stroke-linejoin:round;stroke-dasharray:none;stroke-opacity:1;paint-order:stroke markers fill"
       id="path967"
       cx="149.95119"
       cy="158.36978"
       r="112.85421" /><circle
       style="display:inline;mix-blend-mode:normal;fill:#014a00;fill-opacity:1;stroke:#0c0b0b;stroke-width:1.24547;stroke-linecap:round;stroke-linejoin:round;stroke-dasharray:none;stroke-opacity:1;paint-order:stroke markers fill"
       id="circle18"
       cx="149.95119"
       cy="158.36978"
       r="112.85421" /><text
       xml:space="preserve"
       style="font-size:9.63571px;line-height:16.0595px;font-family:sans-serif;letter-spacing:0px;word-spacing:0px;fill:#000000;stroke:#000000;stroke-width:0.64238px;stroke-linecap:butt;stroke-linejoin:miter;stroke-opacity:1"
       x="20.334682"
       y="337.32483"
       id="text1"><tspan
         sodipodi:role="line"
         id="tspan1"
         style="font-style:normal;font-variant:normal;font-weight:normal;font-stretch:normal;font-family:'Playwrite US Trad';-inkscape-font-specification:'Playwrite US Trad';fill:#000000;stroke-width:0.64238px"
         x="20.334682"
         y="337.32483">Previously at</tspan></text><rect
       style="fill:none;stroke-width:10.8;stroke-linecap:round;paint-order:stroke fill markers;stroke:none"
       id="rect1"
       width="274.05423"
       height="96.530393"
       x="14.474503"
       y="317.58377" /><text
       xml:space="preserve"
       transform="scale(0.26458333)"
       id="text2"
       style="font-size:15px;line-height:25px;font-family:sans-serif;letter-spacing:0px;word-spacing:0px;white-space:pre;shape-inside:url(#rect2);display:inline;fill:none;stroke:#000000;stroke-width:1px;stroke-linecap:butt;stroke-linejoin:miter;stroke-opacity:1" /><text
       xml:space="preserve"
       style="font-size:7.76111px;line-height:12.9352px;font-family:sans-serif;letter-spacing:0px;word-spacing:0px;white-space:pre;shape-inside:url(#rect1);display:inline;fill:none;stroke:#000000;stroke-width:0.264583px;stroke-linecap:butt;stroke-linejoin:miter;stroke-opacity:1"
       x="-47.138771"
       y="437.77182"
       id="text3"
       transform="translate(5.2916669,22.225008)"><tspan
         x="14.474609"
         y="326.06765"
         id="tspan3"><tspan
           style="fill:#000000"
           id="tspan2">2023 Bergen • 2019 Manigod • 2018 Göteborg • 2017 Rastatt • 
</tspan></tspan><tspan
         x="14.474609"
         y="339.00286"
         id="tspan5"><tspan
           style="fill:#000000"
           id="tspan4">2016 Manigod • 2015 Göteborg • 2014 Bühl • 2013 Lörrach • 
</tspan></tspan><tspan
         x="14.474609"
         y="351.93808"
         id="tspan7"><tspan
           style="fill:#000000"
           id="tspan6">2012 Manigod • 2011 Nijmegen • 2010 Gernsbach •2009 Speyer •
</tspan></tspan><tspan
         x="14.474609"
         y="364.87329"
         id="tspan9"><tspan
           style="fill:#000000"
           id="tspan8">2008 Göteborg • 2007 Nomborn • 2006 Speyer • 2005 Lökeberg • 
</tspan></tspan><tspan
         x="14.474609"
         y="377.8085"
         id="tspan11"><tspan
           style="fill:#000000"
           id="tspan10">2004 Königswinter • 2003 Bad Herrenalb • 2002 Göteborg </tspan></tspan></text></g><g
     inkscape:label="Layer 1"
     inkscape:groupmode="layer"
     id="layer1"
     style="display:inline;mix-blend-mode:normal"><path
       style="display:inline;mix-blend-mode:normal;fill:#000000;stroke:#060f06;stroke-width:5;stroke-dasharray:none;stroke-opacity:1"
       d="m 150.95741,105.84043 c -4.37371,11.27335 -12.67915,19.35415 -22.80505,25.55266 v 0.27476 l 12.63894,2.47284 c -4.98793,7.538 -11.22411,15.27049 -19.78272,18.95842 v 0.27475 l 12.63897,2.74762 -8.95048,13.18847 -4.70505,4.18119 -2.16372,-1.98313 -4.51298,-7.69325 10.71565,-2.19809 v -0.27476 c -7.22907,-3.11503 -12.74359,-9.57459 -17.03512,-15.93607 3.10373,-0.24495 8.14338,-0.63978 10.71563,-2.47283 -5.729,-3.50697 -10.77252,-7.39052 -14.71957,-12.91372 -1.96341,-2.74739 -3.067672,-6.15566 -5.063137,-8.7923 -5.297641,9.30884 -10.346919,16.1414 -19.782702,21.70602 2.796732,1.75771 7.465437,2.21635 10.715624,2.47283 -4.24951,6.91834 -9.818814,11.84243 -16.760337,15.93607 2.566502,1.83098 7.613592,2.33964 10.715624,2.47285 -2.876129,4.9277 -5.5872,9.52895 -9.891343,13.41659 -2.716525,2.45363 -6.082038,4.0113 -8.792314,6.36611 3.089621,1.32929 7.077637,2.17022 10.440877,2.19806 -2.028463,6.35472 -10.547928,13.10274 -16.485594,15.66132 v 0.27476 c 11.238511,3.15819 25.206898,2.77371 36.268279,-0.82428 v 14.28751 h 6.868993 v -14.56227 c 10.04029,4.67437 23.47219,3.25892 34.07021,1.76516 3.88709,-0.54787 7.911,-0.98286 11.53993,-2.58945 v 15.38656 h 7.96803 v -15.66132 c 13.6529,4.61881 32.11078,6.5095 45.88488,1.37381 v 14.28751 h 6.86899 l 0.27477,-14.56227 c 3.27658,1.72656 7.35824,2.12956 10.99038,2.51843 8.25903,0.8842 17.4868,0.84726 25.55267,-1.41939 v -0.27476 c -6.12712,-2.64025 -14.13865,-9.26061 -16.48558,-15.66132 3.36321,-0.0278 7.35126,-0.86877 10.44087,-2.19806 -2.71553,-2.35983 -6.07468,-3.91148 -8.79232,-6.36611 -4.29444,-3.87889 -7.02095,-8.49867 -9.89134,-13.41659 3.10203,-0.13318 8.14912,-0.64187 10.71562,-2.47285 -6.9261,-4.08462 -12.5202,-9.033 -16.76034,-15.93607 3.25019,-0.25651 7.91886,-0.7151 10.71563,-2.47283 -5.692,-3.35681 -10.71985,-7.22709 -14.63222,-12.63896 -2.07416,-2.86909 -3.38944,-6.0384 -5.1505,-9.06706 -2.00614,2.98241 -3.28968,6.38784 -5.42522,9.34182 -3.83126,5.29959 -8.8514,8.99367 -14.35748,12.3642 2.57224,1.83305 7.61192,2.22788 10.71564,2.47283 -4.29699,6.36961 -9.74351,12.88421 -17.03512,15.93607 v 0.27476 l 10.71565,2.19809 -4.513,7.69325 -2.20188,1.98313 -4.62872,-4.18139 -8.98863,-13.18827 12.63895,-2.74762 v -0.27475 c -8.50968,-3.66687 -14.82023,-11.4589 -19.7827,-18.95842 l 12.63894,-2.47284 v -0.27476 c -10.12174,-6.19597 -18.43358,-14.28505 -22.80505,-25.55266 z"
       id="path16" /><text
       xml:space="preserve"
       style="font-size:20.1083px;line-height:0;font-family:sans-serif;letter-spacing:-1.06892px;word-spacing:0px;display:inline;fill:#008080;fill-opacity:1;stroke:#008080;stroke-width:0.565;stroke-linecap:butt;stroke-linejoin:miter;stroke-dasharray:none;stroke-opacity:1"
       id="text1025"
       transform="translate(-0.00351654,0.12338811)"><textPath
         xlink:href="#circle452"
         id="textPath455"
         style="font-style:normal;font-variant:normal;font-weight:bold;font-stretch:normal;font-size:20.1083px;line-height:0px;font-family:sans-serif;-inkscape-font-specification:'sans-serif Bold';fill:#000000;fill-opacity:1;stroke:#ffffff;stroke-width:0.565;stroke-dasharray:none;stroke-opacity:1"><tspan
           id="tspan1023"
           style="font-style:normal;font-variant:normal;font-weight:bold;font-stretch:normal;font-size:20.1083px;line-height:0px;font-family:sans-serif;-inkscape-font-specification:'sans-serif Bold';fill:#000000;fill-opacity:1;stroke:#ffffff;stroke-width:0.565;stroke-dasharray:none;stroke-opacity:1"
           dx="0 0 0 0 0 0 0 0 0 0 0 0 0 0 0 0 0 0 8.5500002">20th InternationalKeY Symposium 2024•Bad Herrenalb•Black Forest •• </tspan></textPath></text><circle
       style="fill:none;stroke:none;stroke-width:1.30818;stroke-linecap:round;stroke-linejoin:round;stroke-dasharray:none;stroke-opacity:1;paint-order:stroke markers fill"
       id="circle452"
       cx="-208.15611"
       cy="-63.797192"
       r="118.53736"
       transform="rotate(-150.57142)" /><text
       xml:space="preserve"
       style="font-size:12.2521px;line-height:20.4202px;font-family:sans-serif;letter-spacing:0px;word-spacing:0px;fill:none;stroke:#000000;stroke-width:0.816807px;stroke-linecap:butt;stroke-linejoin:miter;stroke-opacity:1"
       x="147.43214"
       y="284.14001"
       id="text4"><tspan
         sodipodi:role="line"
         style="text-align:center;text-anchor:middle;fill:#1a1a1a;stroke:#1a1a1a;stroke-width:0.816807px"
         x="147.43214"
         y="284.14001"
         id="tspan18" /></text><path
       style="fill:#e10312;fill-opacity:1;stroke-width:1.83227"
       d="m 152.80277,79.1032 c 1.07078,-0.730707 3.57542,-1.739201 5.56586,-2.241078 10.15601,-2.560795 3.03338,-16.789484 -7.95737,-15.89628 -8.77991,0.713537 -13.41841,8.922489 -7.34613,13.000728 1.32451,0.889544 3.35902,2.873292 4.52118,4.408323 1.35545,1.790351 2.32033,2.659355 2.69129,2.423908 0.31806,-0.20186 1.45438,-0.964884 2.52517,-1.695601 z"
       id="path15" /><path
       style="fill:#e10312;fill-opacity:1;stroke-width:1.83227"
       d="m 179.50137,84.29352 c 2.74231,-1.651341 3.99762,-2.107868 8.17999,-2.974942 l 1.93914,-0.402017 0.14842,-2.888715 c 0.62982,-12.259291 -15.97252,-16.946364 -21.48613,-6.065857 -1.9588,3.865479 -1.73517,4.769713 1.76921,7.153521 2.12163,1.443211 3.39209,2.769525 5.4111,5.649047 1.06627,1.520741 0.64994,1.569291 4.03827,-0.471037 z"
       id="path13" /><path
       style="fill:#e10312;fill-opacity:1;stroke-width:1.83227"
       d="m 139.8482,97.479895 c 4.26354,-2.069388 6.49612,-5.573037 6.52612,-10.24164 0.0691,-10.75618 -12.59435,-15.8972 -20.119,-8.167765 -9.04839,9.294636 1.87945,24.09469 13.59288,18.409405 z"
       id="path11" /><path
       style="fill:#e10312;fill-opacity:1;stroke-width:1.83227"
       d="m 165.23238,103.37373 c 4.77425,-1.4304 8.47565,-6.994479 8.01709,-12.051599 -1.11331,-12.277571 -17.16767,-15.101256 -22.27198,-3.917259 -4.17486,9.147439 4.5184,18.885988 14.25489,15.968858 z"
       id="path9" /><path
       style="fill:#e10312;fill-opacity:1;stroke-width:1.83227"
       d="m 193.65957,107.52964 c 5.4872,-2.73438 7.81528,-9.532398 5.25055,-15.331675 -4.95143,-11.195987 -22.40592,-7.269618 -22.23193,5.001043 0.12643,8.913982 8.99607,14.309882 16.98138,10.330632 z"
       id="path7" /><path
       style="fill:#ffffff;fill-opacity:1;stroke:#ffffff;stroke-width:2.02412;stroke-dasharray:none;stroke-opacity:1"
       d="m 141.575,228.88956 c -13.30647,-0.59152 -22.72974,-1.84096 -24.07781,-3.19253 -1.40206,-1.40574 1.04842,-14.80222 7.32778,-40.05982 l 3.94934,-15.88546 -4.59362,-4.21317 c -25.49747,-23.38576 -21.99267,-54.89574 7.77009,-69.857513 27.22535,-13.686152 66.82089,7.755383 66.72733,36.133933 -0.0404,12.31626 -20.8466,17.38902 -41.81818,10.19575 -14.57057,-4.99771 -7.77898,-13.40695 7.16517,-8.87182 22.7095,6.89172 30.18445,-10.74022 10.15216,-23.94687 -23.50587,-15.496574 -53.72248,-4.5014 -55.73585,20.28117 -0.85413,10.51355 4.17993,19.26738 17.49921,30.42962 2.95142,2.47344 5.36462,4.74421 5.36269,5.04613 -0.002,0.30191 -3.09631,12.2839 -6.87637,26.6266 l -6.87284,26.07759 23.87117,0.14009 c 13.12916,0.0767 24.07571,-0.0652 24.32571,-0.31568 0.24993,-0.25068 -1.26108,-6.84651 -3.35801,-14.65747 -10.28547,-38.31349 -10.65242,-41.32806 -5.36015,-44.03499 2.1179,-1.08327 11.6227,-2.90004 12.96353,-2.47786 0.40023,0.12604 1.37461,0.3707 2.16512,0.5437 6.67524,1.46089 3.13861,6.84239 -7.46357,11.3569 -0.0703,0.0302 1.17846,4.99724 2.774,11.0388 10.83361,41.02089 11.88281,46.74768 8.74925,47.75549 -4.46935,1.43741 -30.25097,2.52733 -44.64615,1.88743 z"
       id="path2904" /></g></svg>
