<?xml version="1.0" encoding="UTF-8" standalone="no"?>
<!-- Created with Inkscape (http://www.inkscape.org/) -->

<svg
   width="297mm"
   height="420mm"
   viewBox="0 0 297 420"
   version="1.1"
   id="svg1"
   xml:space="preserve"
   inkscape:version="1.3.2 (091e20ef0f, 2023-11-25)"
   sodipodi:docname="vorderseite_mitte.svg"
   xmlns:inkscape="http://www.inkscape.org/namespaces/inkscape"
   xmlns:sodipodi="http://sodipodi.sourceforge.net/DTD/sodipodi-0.dtd"
   xmlns="http://www.w3.org/2000/svg"
   xmlns:svg="http://www.w3.org/2000/svg"><sodipodi:namedview
     id="namedview1"
     pagecolor="#ffffff"
     bordercolor="#666666"
     borderopacity="1.0"
     inkscape:showpageshadow="2"
     inkscape:pageopacity="0.0"
     inkscape:pagecheckerboard="0"
     inkscape:deskcolor="#d1d1d1"
     inkscape:document-units="mm"
     inkscape:zoom="0.55622658"
     inkscape:cx="406.30924"
     inkscape:cy="695.75963"
     inkscape:window-width="1488"
     inkscape:window-height="536"
     inkscape:window-x="26"
     inkscape:window-y="23"
     inkscape:window-maximized="0"
     inkscape:current-layer="layer1" /><defs
     id="defs1"><clipPath
       clipPathUnits="userSpaceOnUse"
       id="clipPath4"><g
         id="g5"
         transform="matrix(5.6017864,0,0,5.6017864,6411.1259,3766.6807)"><path
           d="M -1141.3566,-710.28042 H -79.195444 V 792.8115 H -1141.3566 Z"
           id="path4"
           style="stroke-width:1.78514" /></g></clipPath><clipPath
       clipPathUnits="userSpaceOnUse"
       id="clipPath550"><path
         d="M 0,0 H 595 V 842 H 0 Z"
         id="path548" /></clipPath></defs><g
     inkscape:label="Layer 1"
     inkscape:groupmode="layer"
     id="layer1"><g
       id="g1"
       transform="translate(93.155133,118.15011)"><g
         inkscape:label="Layer 1"
         id="layer1-6" /><g
         id="g542"
         transform="matrix(0.45326102,0,0,-0.45326102,-30.853463,288.80675)"><g
           id="g544"><g
             id="g546"
             clip-path="url(#clipPath550)"><g
               id="g552"
               transform="scale(0.1)"><path
                 d="m 1542.77,5181.86 c -118.27,48.08 -196.67,155.95 -196.67,272.03 0,165.33 152.82,300.18 340.19,300.18 187.36,0 340.17,-134.85 340.17,-300.18 0,-8.21 -1.33,-18.76 -1.33,-25.79"
                 style="fill:none;stroke:#463c7d;stroke-width:85.0394;stroke-linecap:round;stroke-linejoin:round;stroke-miterlimit:2.6131;stroke-dasharray:none;stroke-opacity:1"
                 id="path554" /><path
                 d="m 1549.62,5177.54 -129.36,-480.27 h 522.25"
                 style="fill:none;stroke:#463c7d;stroke-width:85.0394;stroke-linecap:round;stroke-linejoin:round;stroke-miterlimit:2.6131;stroke-dasharray:none;stroke-opacity:1"
                 id="path556" /><path
                 d="M 1820.44,5167.06 1949.8,4693.45 H 1427.55"
                 style="fill:none;stroke:#463c7d;stroke-width:85.0394;stroke-linecap:round;stroke-linejoin:round;stroke-miterlimit:2.6131;stroke-dasharray:none;stroke-opacity:1"
                 id="path558" /><path
                 d="m 1919.82,5223.53 c -31.7,-11.92 -71.32,-25.53 -105.66,-32.35"
                 style="fill:none;stroke:#463c7d;stroke-width:85.0394;stroke-linecap:round;stroke-linejoin:round;stroke-miterlimit:2.6131;stroke-dasharray:none;stroke-opacity:1"
                 id="path560" /><path
                 d="m 2023.45,5415.41 c -43.56,-17.17 -95.34,-27.47 -145.95,-27.47 -61.21,0 -123.59,14.59 -173.03,39.47"
                 style="fill:none;stroke:#463c7d;stroke-width:85.0394;stroke-linecap:round;stroke-linejoin:round;stroke-miterlimit:2.6131;stroke-dasharray:none;stroke-opacity:1"
                 id="path562" /><path
                 d="m 2038.63,5023.39 32.14,-116.25 751.56,971.25 -123.77,-0.04 -659.93,-854.96"
                 style="fill:#2a976f;fill-opacity:1;fill-rule:evenodd;stroke:none"
                 id="path564" /><path
                 d="m 2044.8,5878.58 121.9,0.03 298.06,-381.25 -70.42,-74.25 -349.54,455.47"
                 style="fill:#2a976f;fill-opacity:1;fill-rule:evenodd;stroke:none"
                 id="path566" /><path
                 d="m 742.59,5878.54 98.926,-0.21 -0.02,-465.74 354.484,466.24 117.57,-0.39 -319.046,-422.92 336.616,-433.32 -33.63,-114.81 -361.224,468.23 -94.637,-122.82 v -340.06 h -99.32 l 0.281,965.8"
                 style="fill:#2a976f;fill-opacity:1;fill-rule:evenodd;stroke:none"
                 id="path568" /></g></g></g></g></g></g></svg>
